<svg width="104" height="32" viewBox="0 0 104 32" fill="none" xmlns="http://www.w3.org/2000/svg">
<g filter="url(#filter0_b_2923_2033)">
<path d="M0.451565 31.4414L15.2563 0.5625H20.6273L5.80313 31.4414H0.451565ZM16.5883 19.8464V19.1953C16.5883 15.9748 17.5475 13.579 19.4659 12.0078C21.3843 10.4366 23.8843 9.65104 26.9659 9.65104C29.8305 9.65104 32.0961 10.2196 33.7628 11.3568C35.4294 12.4939 36.3496 14.2127 36.5232 16.513L36.5492 16.8646H32.2393L32.2133 16.5C32.0918 15.224 31.5839 14.2908 30.6898 13.7005C29.8044 13.1102 28.5501 12.8151 26.9268 12.8151C25.1386 12.8151 23.7063 13.3099 22.63 14.2995C21.5622 15.2891 21.0284 16.8168 21.0284 18.8828V20.1458C21.0284 22.3073 21.5622 23.8655 22.63 24.8203C23.7063 25.7752 25.1386 26.2526 26.9268 26.2526C28.7324 26.2526 30.0345 25.9227 30.8331 25.263C31.6404 24.6033 32.1048 23.7005 32.2263 22.5547L32.2523 22.1901H36.5622L36.5362 22.5807C36.3886 24.7335 35.5076 26.4089 33.893 27.6068C32.2784 28.796 29.9737 29.3906 26.9789 29.3906C23.8539 29.3906 21.3409 28.6137 19.4398 27.0599C17.5388 25.4974 16.5883 23.0929 16.5883 19.8464ZM40.5346 10.0417H56.3159V29H52.0581V13.3099H44.0633L43.6206 21.6563C43.499 24.1042 43.0737 25.9965 42.3445 27.3333C41.6154 28.6701 40.2178 29.3385 38.1518 29.3385C37.7872 29.3385 37.4574 29.3168 37.1622 29.2734C36.8671 29.2387 36.585 29.1693 36.3159 29.0651V25.3802C36.5155 25.441 36.7022 25.4844 36.8758 25.5104C37.0581 25.5365 37.249 25.5495 37.4487 25.5495C38.3168 25.5495 38.9244 25.224 39.2716 24.5729C39.6275 23.9132 39.8532 22.7717 39.9487 21.1484L40.5346 10.0417ZM59.6372 29V10.0417H74.7935V13.3099H63.8039V17.75H73.5044V20.8359H63.8039V25.7839H74.9497V29H59.6372ZM76.982 10.0417H81.2529V25.7318H88.0628V10.0417H92.3206V25.7318H99.1305V10.0417H103.388V29H76.982V10.0417Z" fill="#E7E7E7"/>
</g>
<defs>
<filter id="filter0_b_2923_2033" x="-6.65945" y="-6.54861" width="117.159" height="45.1011" filterUnits="userSpaceOnUse" color-interpolation-filters="sRGB">
<feFlood flood-opacity="0" result="BackgroundImageFix"/>
<feGaussianBlur in="BackgroundImageFix" stdDeviation="3.55556"/>
<feComposite in2="SourceAlpha" operator="in" result="effect1_backgroundBlur_2923_2033"/>
<feBlend mode="normal" in="SourceGraphic" in2="effect1_backgroundBlur_2923_2033" result="shape"/>
</filter>
</defs>
</svg>
